<?xml version="1.0" standalone="no"?><!DOCTYPE svg PUBLIC "-//W3C//DTD SVG 1.1//EN" "http://www.w3.org/Graphics/SVG/1.1/DTD/svg11.dtd"><svg t="1722332523569" class="icon" viewBox="0 0 1024 1024" version="1.1" xmlns="http://www.w3.org/2000/svg" p-id="7536" xmlns:xlink="http://www.w3.org/1999/xlink" width="200" height="200"><path d="M511.996 0C794.772 0 1024 229.228 1024 511.996 1024 794.772 794.772 1024 511.996 1024 229.228 1024 0 794.772 0 511.996 0 229.228 229.228 0 511.996 0z" fill="#B1E3FB" p-id="7537"></path><path d="M642.398 457.854l-0.84-16.07-0.01-0.018 25.536-1.334 29.812-1.572c-5.766-1.956-11.832-5.4-17.972-10.178l47.006-2.494a266.848 266.848 0 0 0-5.756-20.868l-0.438-1.362-0.192-0.576-0.256-0.768-0.456-1.362-0.21-0.63-0.246-0.712-0.456-1.344-0.246-0.704-0.228-0.63-0.476-1.316-0.284-0.768-0.2-0.566-0.494-1.334-0.31-0.822-0.192-0.494-0.512-1.306-0.328-0.886-0.174-0.43-0.512-1.306-0.374-0.942-0.156-0.366-0.53-1.288-0.412-0.996-0.128-0.302-0.54-1.288-0.448-1.05-0.1-0.228-0.558-1.28-0.476-1.124-0.074-0.156-0.576-1.28-0.512-1.16-0.064-0.1-0.566-1.27-0.558-1.216-0.028-0.046-0.584-1.26-0.594-1.252-0.01-0.01-0.594-1.234-0.622-1.252-0.018-0.074-0.594-1.16-0.612-1.242-0.074-0.138-0.548-1.096-0.63-1.224-0.64-1.216-0.63-1.234-0.146-0.264-0.512-0.95-0.658-1.216-0.156-0.32-0.502-0.886-0.658-1.224-0.2-0.356-0.466-0.84-0.666-1.196-0.246-0.438-0.448-0.75-0.676-1.196-0.274-0.502-0.412-0.694-0.704-1.188-0.32-0.54-0.374-0.63-0.722-1.188-0.348-0.594-0.348-0.584-0.73-1.16-0.392-0.648-0.32-0.52-0.722-1.17-0.448-0.704-0.284-0.466-0.74-1.152-0.484-0.75-0.256-0.402-0.74-1.16-0.53-0.794-0.228-0.338-0.758-1.142-0.576-0.878-0.174-0.264-0.776-1.142-0.622-0.904-0.146-0.228-0.768-1.142-0.676-0.96-0.118-0.174-0.776-1.114-0.722-1.014-0.064-0.118-0.794-1.106h-0.018c-13.86-19.432-29.794-37.476-47.042-54.616 7.858 24.166 10.936 46.366 10.808 66.11l-0.01 0.356v0.338l-0.018 0.32V339.36a160.09 160.09 0 0 1-0.292 7.966l-0.036 0.31-0.01 0.31c-0.712 10.416-2.33 20.064-4.65 28.862l0.01 0.01-0.018-0.046-0.64-1.288-0.064-0.1-0.01-0.028-9.428-178.458-9.182 0.484c-16.052 19.332-31.51 38.976-45.618 59.312l-0.584 0.858-0.594 0.85-0.604 0.878-0.584 0.858-0.01 0.018-0.584 0.85-0.566 0.858-0.584 0.868-0.594 0.858-0.118 0.182-0.466 0.686-0.566 0.868-0.584 0.868-0.576 0.868-0.21 0.328-0.356 0.53-0.576 0.868-0.576 0.896-0.576 0.858-0.302 0.476-0.246 0.392-0.566 0.878-0.576 0.868-0.558 0.886-0.402 0.63-0.146 0.246-0.576 0.878-0.548 0.886-0.548 0.868-0.512 0.786-0.054 0.1-0.548 0.878-0.54 0.896-0.558 0.878-0.53 0.878-0.054 0.064-0.494 0.832-0.548 0.886-0.53 0.878-0.548 0.896-0.128 0.2-0.402 0.686-0.53 0.896-0.52 0.896-0.53 0.896-0.22 0.366-0.31 0.52-0.53 0.904-0.512 0.886-0.53 0.904-1.042 1.79-0.502 0.904-0.512 0.896-0.384 0.686-0.128 0.238-0.502 0.896-0.512 0.904-0.494 0.914-0.476 0.84-0.028 0.054-0.494 0.914-0.512 0.914-0.484 0.896-0.494 0.914-0.054 0.1-0.438 0.814-0.484 0.922-0.476 0.914-0.484 0.914-0.138 0.256-0.338 0.666-0.484 0.914-0.476 0.914-0.466 0.932-0.228 0.412-0.246 0.512-0.466 0.922c-5.382 10.672-10.296 21.562-14.628 32.772l-0.238 0.622-0.246 0.622-0.046 0.138-0.182 0.494-0.23 0.61-0.228 0.63-0.238 0.612-0.246 0.63-0.22 0.63-0.182 0.476-0.046 0.146-0.228 0.622-0.228 0.64-0.238 0.622-0.21 0.63-0.228 0.64-0.238 0.622-0.064 0.192-0.146 0.438-0.228 0.64-0.21 0.63-0.21 0.63-0.238 0.63-0.21 0.63-0.182 0.52-0.028 0.128-0.22 0.63-0.21 0.63-0.21 0.64-0.21 0.63-0.21 0.64-0.2 0.64-0.082 0.22-0.118 0.42-0.22 0.64-0.192 0.64-0.21 0.648-0.192 0.63-0.192 0.64-0.2 0.576-0.01 0.082-0.192 0.64-0.192 0.64-0.2 0.648-0.192 0.64-0.192 0.648-0.192 0.64-0.374 1.306-0.2 0.64-0.164 0.658-0.2 0.648-0.174 0.648-0.182 0.612-0.01 0.036-0.174 0.658-0.182 0.658-0.174 0.658-0.174 0.648-0.174 0.658-0.174 0.658-0.082 0.292-0.092 0.366-0.174 0.648-0.174 0.658-0.174 0.658-0.146 0.666-0.174 0.658-0.174 0.648-0.156 0.666-0.174 0.658-0.146 0.666a302.92 302.92 0 0 0-8.35 61.588l93.93-4.96 0.018 0.01 34.682-1.828 0.84 16.07-128.63 6.78 0.074 0.138 0.074 0.11 0.074 0.128 0.082 0.118 0.074 0.128 0.082 0.118 0.064 0.128 0.082 0.118 0.074 0.128 0.082 0.11 0.054 0.092 0.018 0.046 0.074 0.11 0.092 0.128 0.064 0.118 0.092 0.128 0.064 0.11 0.092 0.128 0.082 0.118 0.064 0.118 0.082 0.128 0.064 0.118 0.054 0.046 0.036 0.074 0.082 0.118 0.064 0.11 0.082 0.128 0.082 0.118 0.082 0.11 0.074 0.128 0.082 0.118 0.082 0.11 0.146 0.246 0.018 0.01 0.064 0.1 0.092 0.128 0.082 0.118 0.064 0.11 0.082 0.118 0.092 0.128 0.074 0.11 0.082 0.11 0.082 0.11 0.01 0.018 0.064 0.118 0.074 0.082 0.01 0.028 0.082 0.11 0.082 0.118 0.082 0.11 0.082 0.118 0.082 0.128 0.082 0.11 0.082 0.11 0.082 0.11 0.082 0.118 0.082 0.11 0.036 0.074 0.046 0.036 0.082 0.128 0.082 0.11 0.082 0.118 0.082 0.11 0.082 0.11 0.082 0.118 0.082 0.11 0.082 0.118 0.082 0.11 0.082 0.11 0.128 0.182 0.138 0.164 0.118 0.182 0.128 0.174 0.138 0.174 0.128 0.174 0.028 0.036 0.11 0.128 0.128 0.182 0.138 0.164 0.128 0.182 0.118 0.174 0.128 0.164 0.074 0.064 0.074 0.1 0.138 0.174 0.128 0.174 0.128 0.164 0.128 0.164 0.138 0.182 0.412 0.494 0.128 0.164 0.138 0.174 0.128 0.164 0.118 0.128 0.028 0.028 0.128 0.174 0.128 0.164 0.146 0.164 0.128 0.164 0.284 0.328 0.018 0.01 0.53 0.648 0.128 0.156 0.146 0.156 0.046 0.036 0.228 0.292 0.146 0.146 0.128 0.164 0.146 0.164 0.146 0.146 0.074 0.082 0.054 0.082 0.146 0.164 0.146 0.146 0.146 0.164 0.264 0.31 0.118 0.1 0.028 0.064 0.146 0.146 0.146 0.156 0.146 0.146 0.146 0.164 0.138 0.146 0.118 0.138 0.028 0.01 0.138 0.164 0.146 0.146 0.146 0.164 0.138 0.146 0.146 0.146 0.138 0.146 0.028 0.028 0.118 0.128 0.146 0.146 0.164 0.174 0.192 0.192 0.164 0.174 0.164 0.174 0.064 0.064 0.118 0.1 0.164 0.192 0.182 0.164 0.164 0.174 0.138 0.128 0.046 0.046 0.174 0.164 0.182 0.174 0.182 0.174 0.164 0.174 0.028 0.036 0.156 0.128 0.174 0.174 0.174 0.174 0.174 0.164 0.1 0.092 0.082 0.074 0.192 0.174 0.174 0.164 0.164 0.164 0.182 0.174 0.182 0.164 0.182 0.164 0.174 0.156 0.182 0.174 0.064 0.046 0.118 0.118 0.182 0.156 0.174 0.164 0.182 0.156 0.138 0.138 0.054 0.028 0.182 0.156 0.182 0.174 0.174 0.146 0.374 0.32 0.182 0.164 0.182 0.156 0.192 0.146 0.092 0.1 0.082 0.074 0.182 0.156 0.192 0.146 0.174 0.156 0.174 0.138 0.028 0.028 0.182 0.156 0.192 0.146 0.192 0.146 0.174 0.156 0.064 0.054 0.128 0.092 0.192 0.156 0.182 0.156 0.192 0.146 0.128 0.1 0.064 0.046 0.192 0.156 0.182 0.146 0.192 0.156 0.192 0.146 0.018 0.01 0.174 0.138 0.192 0.138 0.192 0.146 0.192 0.146 0.092 0.064 0.1 0.092 0.192 0.138 0.192 0.146 0.256 0.182 0.238 0.182 0.164 0.11 0.082 0.054 0.238 0.192 0.256 0.182 0.082 0.046 0.164 0.118 0.256 0.192 0.246 0.164v0.018l0.246 0.164 0.256 0.164 0.146 0.128 0.11 0.054 0.246 0.164 0.256 0.182 0.074 0.046 0.174 0.128 0.246 0.164 0.246 0.174 0.246 0.164 0.274 0.174 0.164 0.092 0.082 0.082 0.264 0.156 0.246 0.174 0.082 0.046 0.164 0.118 0.264 0.164 0.246 0.146h0.018l0.246 0.164 0.264 0.164 0.146 0.1 0.1 0.074 0.264 0.146 0.264 0.156 0.064 0.054 0.2 0.11 0.256 0.146 0.228 0.156 0.028 0.018 0.256 0.146 0.264 0.156 0.156 0.092 0.1 0.054 0.274 0.174 0.274 0.138 0.054 0.036 0.2 0.11 0.256 0.156 0.246 0.146 0.018 0.01 0.264 0.146 0.274 0.146 0.146 0.092 0.118 0.054 0.256 0.146 0.274 0.146 0.046 0.036 0.22 0.11 0.274 0.146 0.228 0.138 0.036 0.01 0.274 0.146 1.334 0.686 0.284 0.146c9.656 4.98 20.274 8.452 31.274 10.452l0.128 0.036 0.356 0.046 1.854 0.328-0.082 0.064 0.082-0.064c19.652 3.436 41.094 2.996 63.076-0.028 21.206-2.988 24.686-4.202 43.004-8.706l0.54-0.146 0.54-0.138 0.53-0.146 0.54-0.146v0.018l0.53-0.146 0.018-0.01 0.512-0.138 0.018-0.01 0.52-0.146 1.088-0.284 0.53-0.146 0.53-0.146 0.53-0.146 0.54-0.156 0.53-0.146 0.53-0.146h0.018l0.52-0.146h0.018l0.512-0.146h0.018l0.512-0.146 0.018-0.01 1.598-0.456 0.53-0.146 0.53-0.146v-0.018l0.53-0.146 0.018-0.01 6.88-2.038h0.018l0.52-0.164 0.53-0.146v-0.018l0.54-0.146-0.01-0.018 0.53-0.146v-0.018l0.53-0.146-0.01-0.01 1.572-0.494h0.018l0.512-0.164h0.018l0.512-0.164h0.018l1.562-0.502h0.018l0.512-0.164h0.018l1.032-0.338 0.018-0.01 0.512-0.156 0.018-0.01 1.024-0.328 0.01-0.01 1.042-0.328 0.018-0.01 1.032-0.338h0.018l0.494-0.174h0.018l0.512-0.164 0.01-0.01 0.512-0.174h0.01l0.292-0.1 0.284-0.092 0.558-0.192 0.246-0.082 0.32-0.11 0.558-0.182 0.2-0.074 0.374-0.118 0.548-0.182 0.174-0.064 0.402-0.128 0.558-0.192 0.118-0.054 0.43-0.138 0.576-0.192 0.074-0.036 0.484-0.146 0.558-0.192 0.046-0.028 0.52-0.174 0.54-0.182 0.018-0.01 0.558-0.182 0.502-0.202 0.064-0.018 0.548-0.182 0.466-0.164 0.092-0.028 0.548-0.2 0.43-0.146 0.146-0.046 0.548-0.2 0.374-0.138 0.182-0.046 0.548-0.21 0.328-0.1 0.228-0.092 0.548-0.202 0.302-0.092 0.256-0.11 0.558-0.182 0.238-0.1 0.31-0.11 0.548-0.2 0.2-0.074 0.356-0.128 0.548-0.182 0.156-0.064 0.402-0.146 0.53-0.2 0.128-0.046 0.43-0.156 0.548-0.202 0.082-0.028 0.466-0.174 0.54-0.2 0.046-0.018 0.502-0.182 0.54-0.182 0.018-0.028 0.53-0.2 0.512-0.174 0.046-0.028 0.548-0.2 0.448-0.156 0.082-0.046 0.558-0.202 0.412-0.146 0.118-0.054 0.558-0.2 0.366-0.138 0.174-0.064 0.53-0.22 0.338-0.11 0.21-0.092 0.54-0.2 0.284-0.11 0.246-0.082 0.53-0.22 0.246-0.082 0.31-0.118 0.53-0.202 0.192-0.082 0.338-0.128 0.54-0.202 0.156-0.064 0.374-0.156 0.53-0.192 0.128-0.054 0.412-0.146 0.53-0.22 0.082-0.018 0.456-0.174 0.52-0.21 0.046-0.018 0.484-0.182 0.53-0.22 0.292-0.11 0.302-0.118 0.092-0.046 0.2-0.074 0.284-0.11 0.31-0.118 0.284-0.11 0.018-0.01 0.274-0.11 0.292-0.11 0.302-0.118 0.21-0.092 0.082-0.018 0.284-0.118 0.292-0.11 0.292-0.118 0.146-0.064 0.156-0.054 0.292-0.118 0.284-0.11 0.292-0.11 0.054-0.036 7.876 30.67 7.318-0.384-1.892-35.704-0.228-4.432-0.584-10.844-0.392-7.784-127.312 6.728z m-14.994-107.086l0.146 0.412-8.114-153.79c-7.254 29.674-9.054 58.316-6.944 84.894l0.028 0.01v0.21l0.156 1.58 0.064 0.822 0.092 0.942 0.128 1.462 0.036 0.31 0.182 1.754 0.028 0.328 0.156 1.426 0.118 0.968 0.092 0.776 0.192 1.58 0.018 0.146 0.228 1.746 0.064 0.456 0.182 1.26 0.146 1.096 0.092 0.63 0.256 1.7v0.018l0.274 1.7 0.092 0.594 0.192 1.096 0.192 1.206 0.082 0.494 0.31 1.69 0.01 0.11 0.302 1.554 0.128 0.722 0.174 0.95 0.264 1.324 0.082 0.338 0.338 1.654 0.036 0.264 0.302 1.38 0.182 0.84 0.174 0.804 0.328 1.426 0.036 0.21 0.384 1.618 0.092 0.392 0.292 1.224 0.228 0.96 0.164 0.648 0.392 1.544 0.018 0.064 0.402 1.59 0.138 0.502 0.292 1.088 0.292 1.068 0.138 0.494 0.438 1.572 0.018 0.064 0.43 1.498 0.174 0.622 0.274 0.922 0.356 1.188 0.118 0.356 0.456 1.544 0.074 0.182 0.42 1.334 0.22 0.74 0.264 0.776 0.412 1.288 0.082 0.228 0.494 1.498 0.11 0.31 0.412 1.188 0.284 0.832 0.238 0.64 0.484 1.37 0.028 0.11 0.538 1.454z m-49.838 162.506c-0.448 0.31-0.896 0.622-1.344 0.878 0.448-0.256 0.896-0.566 1.344-0.878z" fill="#903B13" p-id="7538"></path><path d="M0.95 542.84c359.758 41.406 656-121.942 1022.804-46.174 0.146 5.098 0.246 10.206 0.246 15.33C1024 794.772 794.772 1024 511.996 1024 239.59 1024 16.902 811.244 0.95 542.84z" fill="#28B5F5" p-id="7539"></path><path d="M15.394 637.006c335.858 46.804 641.722-46.678 982.348 37.212C929.896 877.482 738.072 1024 511.996 1024 272.352 1024 71.19 859.346 15.394 637.006z" fill="#4EC1F5" p-id="7540"></path><path d="M78.644 784.73c308.358 11.174 583.778-86.438 896.12-53.438C892.62 904.334 716.3 1024 511.996 1024c-182.506 0-342.684-95.51-433.352-239.27z" fill="#7FD3F9" p-id="7541"></path><path d="M171.872 894.658c254.124 4.176 487.008-61.652 738.464-61.02C816.48 949.74 672.922 1024 511.996 1024c-130.558 0-249.686-48.898-340.124-129.342z" fill="#B1E3FB" p-id="7542"></path><path d="M185.156 610.576c-4.23-5.024-19.14-6.378-28.652-10.424s-14.354-20.868-14.354-20.868c-2.12 8.872-13.476 14.92-21.26 18.172s-17.24 10.908-17.24 10.908c-1.362-41.478 29.602-46.43 29.602-46.43s0.31-13.722-0.676-30.552c-0.52-8.706 0.164-24.348 2.786-40.418-0.338-1.864-1.846-9.62-3.92-11.31-6.834-5.582-23.49 3.454-17.524-7.666 8.004-14.938 39.542-32.05 43.314-34.06 14.508-17.03 36.08-31.722 56.846-36.134 25.59-5.436 26.158 14.262 26.158 14.262s24.658-6.642 29.82 3.508c0.476 0.922 0.712 1.846 0.75 2.768 0.074 1.608-0.466 3.216-1.508 4.814-1.992 3.06-29.848 19.854-32.406 21.25-5.994 3.28-12.818 7.574-20.072 12.946 2.676 3.088 5.172 7.098 6.02 11.886 2.148 11.968-3.124 17.002-4.898 16.426-3.034-0.986-4.86-10.398-16.006-16.172-1.142 1.024-2.284 2.064-3.436 3.134 1.078 4.084 1.69 8.442 1.772 12.014 0.22 9.804-2.074 25.956-6.404 26.54-3.226 0.438-6.24-11.942-12.754-20.382-1.068 1.242-2.12 2.512-3.18 3.8-20.402 24.988-29.94 63.332-29.94 63.332 35.324 7.726 37.162 48.6 37.162 48.656z m46.138-171.57c26.34-0.74 16.846-0.476 0 0z" fill="#FFB100" p-id="7543"></path><path d="M296.764 100.288c63.022 0 114.102 51.08 114.102 114.102s-51.08 114.102-114.102 114.102-114.102-51.08-114.102-114.102 51.08-114.102 114.102-114.102z" fill="#FFF7C3" p-id="7544"></path><path d="M296.764 117.254c53.648 0 97.136 43.488 97.136 97.136s-43.488 97.136-97.136 97.136-97.136-43.488-97.136-97.136 43.488-97.136 97.136-97.136z" fill="#FFF39B" p-id="7545"></path><path d="M296.764 135.508c43.57 0 78.882 35.32 78.882 78.882 0 43.57-35.312 78.882-78.882 78.882s-78.882-35.312-78.882-78.882c0-43.56 35.31-78.882 78.882-78.882z" fill="#FFEF76" p-id="7546"></path><path d="M429.248 92.458c8.68 0 16.866 1.398 24.12 3.882 7.848-5.216 18.592-8.442 30.46-8.442 20.53 0 37.742 9.658 42.346 22.658 10.27 2.102 18.5 7.364 22.256 14.134a50.508 50.508 0 0 1 3.756-0.138c18.966 0 34.352 10.46 34.352 23.362 0 12.9-15.386 23.362-34.352 23.362-5.92 0-11.484-1.014-16.336-2.796-4.166 9.702-17.358 16.802-32.99 16.802-9.538 0-18.182-2.65-24.402-6.934-6.23 4.284-14.874 6.934-24.422 6.934-9.072 0-17.332-2.402-23.472-6.304-6.286 4.668-15.312 7.602-25.354 7.602-9.41 0-17.926-2.558-24.12-6.724a58.88 58.88 0 0 1-8.816 0.648c-22.612 0-40.93-12.462-40.93-27.83 0-15.376 18.318-27.838 40.93-27.838 1.234 0 2.458 0.046 3.654 0.118 2.906-18.28 25.664-32.496 53.32-32.496z" fill="#FFFFFF" p-id="7547"></path><path d="M630.31 161.592s11.584-2.486 21.278-0.63c9.712 1.864 19.834 9.922 30.79 10.544 10.946 0.612 8.67-3.518 8.67-3.518s-7.026 1.042-8.89-4.952c-1.846-5.994 5.792-10.754 17.56-19.004 11.786-8.26 14.06-16.528 11.786-21.698 0 0-2.074 3.308-11.786 8.478-9.702 5.162-16.72 14.672-24.366 21.47-7.648 6.824-8.058 7.236-15.294 5.792-7.218-1.442-22.722-3.718-29.748 3.518z" fill="" p-id="7548"></path></svg>